# xmcd
#
# Track frame offsets: 
#        300
#        13501
#        25948
#        37936
#        49873
#        61884
#        75028
#        87285
#        100325
#        113988
#        127886
#        140295
#        153776
#        167339
#        180221
#        193408
#        206489
#        221290
#        234592
#        249351
#
# Disc length: 3510 seconds
#
# Revision: 0
# Processed by: cddbd v1.5.2PL0 Copyright (c) Steve Scherf et al.
# Submitted via: ExactAudioCopy v1.0b1
#
DISCID=f00db214
DTITLE=T-Bone Walker - Midnight Blues
DYEAR=2004
DGENRE=Texas Blues
TTITLE0=Midnight Blues
TTITLE1=Lonesome Woman Blues
TTITLE2=That's Better For Me
TTITLE3=Bobby Sox Baby
TTITLE4=It's A Lowdown Dirty Deal
TTITLE5=T-Bone Jumps Again
TTITLE6=I Wish You Were Mine
TTITLE7=Stormy Monday
TTITLE8=The Plain Old Down Home Blues
TTITLE9=I'm In An Awful Mood
TTITLE10=T-Bone Shuffle
TTITLE11=Misfortune Blues
TTITLE12=Long Skirt Baby Blues
TTITLE13=You're My Best Poker Hand
TTITLE14=Mean Old World
TTITLE15=I Got A Break Baby
TTITLE16=I'm Still In Love With You
TTITLE17=T-Bone Blues
TTITLE18=Description Blues
TTITLE19=That Old Feeling Is Gone
EXTD=
EXTT0=
EXTT1=
EXTT2=
EXTT3=
EXTT4=
EXTT5=
EXTT6=
EXTT7=
EXTT8=
EXTT9=
EXTT10=
EXTT11=
EXTT12=
EXTT13=
EXTT14=
EXTT15=
EXTT16=
EXTT17=
EXTT18=
EXTT19=
PLAYORDER=
